<?xml version="1.0" standalone="no"?><!DOCTYPE svg PUBLIC "-//W3C//DTD SVG 1.1//EN" "http://www.w3.org/Graphics/SVG/1.1/DTD/svg11.dtd"><svg t="1617230766226" class="icon" viewBox="0 0 1024 1024" version="1.1" xmlns="http://www.w3.org/2000/svg" p-id="2072" xmlns:xlink="http://www.w3.org/1999/xlink" width="200" height="200"><defs><style type="text/css"></style></defs><path d="M65.212632 832.538947a40.421053 40.421053 0 1 0 0 80.842106 40.421053 40.421053 0 0 0 0-80.842106M173.002105 940.328421a40.421053 40.421053 0 1 0-0.026947 80.815158 40.421053 40.421053 0 0 0 0.026947-80.815158M199.949474 805.591579a40.421053 40.421053 0 1 0-0.026948 80.815158 40.421053 40.421053 0 0 0 0.026948-80.815158" fill="#C7C7C7" p-id="2073"></path><path d="M292.405895 489.768421a26.947368 26.947368 0 0 0-38.022737-0.026947l-29.642105 29.507368a131.988211 131.988211 0 0 0-39.046737 94.073263c0 35.516632 13.850947 68.931368 39.046737 94.046316l112.693894 112.478316a132.581053 132.581053 0 0 0 94.208 38.938947c35.543579 0 68.985263-13.850947 94.127158-38.938947l29.615158-29.480421a26.947368 26.947368 0 0 0 0.026948-38.184421l-263.006316-262.413474" fill="#48A0DC" p-id="2074"></path><path d="M982.932211 254.598737l-191.946106-191.784421A131.233684 131.233684 0 0 0 697.613474 24.252632a135.491368 135.491368 0 0 0-112.613053 60.173473l-232.609684 346.381474a26.947368 26.947368 0 0 0 3.314526 34.088421l224.87579 224.714105a26.893474 26.893474 0 0 0 34.034526 3.314527l346.677895-232.448a135.114105 135.114105 0 0 0 59.580631-99.408843 131.772632 131.772632 0 0 0-37.941894-106.469052" fill="#546A79" p-id="2075"></path></svg>